# xmcd
#
# Track frame offsets: 
#        150
#        69212
#        138105
#        168710
#        190507
#        203042
#        216177
#        222520
#
# Disc length: 3503 seconds
#
# Revision: 0
# Processed by: cddbd v1.5.2PL0 Copyright (c) Steve Scherf et al.
# Submitted via: ExactAudioCopy v0.95b3
#
DISCID=740dad08
DTITLE=Sofia Gubaidulina - Festival der Freunde Gubaidulinas
DYEAR=1996
DGENRE=Classical
TTITLE0=Sofia Gubaidulina - Seiltänzer (für Violine and Klavier)
TTITLE1=Victor Suslin - Sonate (für Violoncello and Schlagzeug)
TTITLE2=Sofia Gubaidulina - Ein Engel (für Altstimme and Kontrabaß)
TTITLE3=Sofia Gubaidulina - Silenzio (für Bajan, Violine and Violoncello
TTITLE3=) - I
TTITLE4=Sofia Gubaidulina - Silenzio (für Bajan, Violine and Violoncello
TTITLE4=) - II
TTITLE5=Sofia Gubaidulina - Silenzio (für Bajan, Violine and Violoncello
TTITLE5=) - III
TTITLE6=Sofia Gubaidulina - Silenzio (für Bajan, Violine and Violoncello
TTITLE6=) - IV
TTITLE7=Sofia Gubaidulina - Silenzio (für Bajan, Violine and Violoncello
TTITLE7=) - V
EXTD=
EXTT0=
EXTT1=
EXTT2=
EXTT3=
EXTT4=
EXTT5=
EXTT6=
EXTT7=
PLAYORDER=
